PathFileType	4	(X/Y/Z)	G:\GRF\jawan data\CompiledGRF\03. Mohit Kumar\0231~ac~Walking 07_markers.trc
DataRate	CameraRate	NumFrames	NumMarkers	Units	OrigDataRate	OrigDataStartFrame	OrigNumFrames
100.000000	100.000000	10	18	mm	100.000000	479	959
Frame#	Time	c7			r should			l should			sacrum			r asis			r bar 1			r knee 1			r bar 2			r mall			r heel			r met			l asis			l bar 1			l knee 1			l bar 2			l mall			l heel			l met			
		X1	Y1	Z1	X2	Y2	Z2	X3	Y3	Z3	X4	Y4	Z4	X5	Y5	Z5	X6	Y6	Z6	X7	Y7	Z7	X8	Y8	Z8	X9	Y9	Z9	X10	Y10	Z10	X11	Y11	Z11	X12	Y12	Z12	X13	Y13	Z13	X14	Y14	Z14	X15	Y15	Z15	X16	Y16	Z16	X17	Y17	Z17	X18	Y18	Z18	

480	4.79	-426.9922180175781	1515.770874023438	299.5852355957031	-362.9730529785156	1468.73095703125	456.7178649902344	-390.9161682128906	1475.856323242188	133.2085113525391	-533.4750366210938	1055.794067382813	285.0318603515625	-346.7629699707031	1017.85302734375	403.8530578613281	-430.9136962890625	607.5039672851563	460.2112731933594	-421.3425598144531	521.4840698242188	405.256103515625	-497.0235900878906	200.1804962158203	417.5167846679688	-495.8634948730469	76.0028076171875	352.0101318359375	-554.692626953125	42.56836318969727	304.2368469238281	-346.46826171875	40.95701599121094	349.9004516601563	-357.7277526855469	1028.995971679688	156.4444885253906	-253.4822540283203	640.2348022460938	64.76377105712891	-210.3494110107422	556.2573852539063	114.2236099243164	-339.3561096191406	302.79443359375	75.55870056152344	-397.4639587402344	139.9680786132813	145.9449157714844	-462.9698181152344	117.915283203125	205.9873657226563	nan	nan	nan	
481	4.8	-418.1233520507813	1515.1298828125	299.9710998535156	-354.2164611816406	1467.705932617188	457.2001647949219	-381.8669128417969	1474.804565429688	133.476318359375	-525.392578125	1055.423706054688	285.3260498046875	-338.9519958496094	1016.99755859375	404.3010864257813	-426.7667236328125	607.2431030273438	460.4613037109375	-418.6432800292969	521.247802734375	405.573486328125	-496.4357604980469	200.3390808105469	417.60986328125	-495.7684936523438	76.21799468994141	351.8672485351563	-554.6121826171875	42.79173278808594	304.127685546875	-346.4083862304688	40.94644927978516	349.9399108886719	-350.5213012695313	1028.276977539063	156.8033599853516	-244.487548828125	640.28857421875	65.74073791503906	-199.9520263671875	557.2356567382813	115.1485290527344	-318.1669006347656	298.5742797851563	75.64339447021484	-366.7732849121094	132.4219207763672	145.7076416015625	-431.1888732910156	107.1938171386719	205.3529052734375	nan	nan	nan	
482	4.81	-409.2828674316406	1514.312744140625	300.3128662109375	-345.4996643066406	1466.645629882813	457.6464233398438	-373.3292846679688	1473.880981445313	133.7669830322266	-517.1947021484375	1055.079223632813	285.5787353515625	-330.7861022949219	1016.2255859375	404.7241821289063	-422.8391723632813	607.0758666992188	460.8407592773438	-415.9053344726563	521.0377807617188	405.9524536132813	-495.7468872070313	200.5627288818359	417.7052917480469	-495.4038696289063	76.24695587158203	351.8933410644531	-554.6405029296875	43.11055755615234	304.0240783691406	-346.2791748046875	40.93740081787109	350.0159301757813	-342.7730102539063	1027.2861328125	157.2974395751953	-236.7947082519531	639.6914672851563	66.87158966064453	-190.1377716064453	557.6588745117188	116.1247024536133	-297.3754577636719	294.4563598632813	75.72236633300781	-336.5083312988281	124.9770202636719	145.6890411376953	-399.4480285644531	97.20384216308594	204.5849761962891	nan	nan	nan	
483	4.82	-400.3445434570313	1513.412231445313	300.5379333496094	-336.761474609375	1465.45947265625	458.0286254882813	-364.5941162109375	1472.919311523438	133.9641723632813	-508.791259765625	1054.643188476563	285.7749633789063	-322.5299682617188	1015.38623046875	405.118408203125	-418.8820495605469	606.8585815429688	461.25341796875	-412.9067687988281	520.7532348632813	406.3166198730469	-495.0242004394531	200.8339385986328	417.81640625	-495.5746459960938	76.6939697265625	351.6908264160156	-554.5667114257813	43.38842010498047	303.9176330566406	-346.2265625	40.91985702514648	350.0970764160156	-333.1941528320313	1026.571533203125	157.9978179931641	-230.2060089111328	638.4860229492188	68.04498291015625	-181.1975860595703	557.6627807617188	117.1571884155273	-276.7217407226563	290.3505554199219	75.95639801025391	-305.8340759277344	118.3988265991211	145.3031616210938	-367.5516357421875	87.83232116699219	203.8411254882813	nan	nan	nan	
484	4.83	-391.8828125	1512.587280273438	300.8002624511719	-327.9416198730469	1464.171752929688	458.3071899414063	-355.6668395996094	1471.85009765625	134.1172637939453	-500.3855285644531	1054.117797851563	285.9545288085938	-314.6574401855469	1014.209533691406	405.5350341796875	-414.8617248535156	606.5845336914063	461.6502075195313	-410.0005493164063	520.491943359375	406.6531677246094	-494.3897705078125	201.1668853759766	417.932373046875	-495.4756469726563	76.98869323730469	351.6517944335938	-554.566650390625	43.73762893676758	303.8117980957031	-346.1849365234375	40.88775634765625	350.205810546875	-324.7044067382813	1025.7763671875	158.5885162353516	-224.3749389648438	636.5096435546875	69.40303802490234	-173.029052734375	557.1021728515625	118.4073638916016	-256.079345703125	286.3254089355469	76.31307983398438	-275.087646484375	112.4443969726563	145.0885162353516	-335.4927062988281	79.03179931640625	203.1881866455078	nan	nan	nan	
485	4.84	-383.1874694824219	1511.648681640625	301.0379333496094	-319.1220703125	1462.828491210938	458.6207580566406	-346.6735229492188	1470.759887695313	134.3065338134766	-492.18701171875	1053.51513671875	286.1090393066406	-306.218994140625	1013.188842773438	406.0633239746094	-411.0445556640625	606.4159545898438	462.0622253417969	-407.2343139648438	520.296142578125	407.0248413085938	-493.8587951660156	201.5615081787109	418.0615234375	-495.3801879882813	77.29705810546875	351.6368408203125	-554.5311889648438	44.13125228881836	303.6734619140625	-346.1602172851563	40.82427597045898	350.3782653808594	-316.5243225097656	1024.743774414063	159.0000610351563	-219.0306854248047	633.9440307617188	70.73341369628906	-165.6751098632813	556.1596069335938	119.8554306030273	-235.2400360107422	282.404541015625	76.85625457763672	-244.6496429443359	107.3277969360352	144.9822387695313	-303.390625	70.92432403564453	202.7167510986328	nan	nan	nan	
486	4.850000000000001	-374.5025939941406	1510.587890625	301.2483825683594	-310.0412902832031	1461.365234375	458.7977600097656	-337.8869934082031	1469.660522460938	134.5178833007813	-483.9206237792969	1052.676513671875	286.252197265625	-297.6767883300781	1012.194152832031	406.369384765625	-407.1856384277344	606.298095703125	462.5021362304688	-404.7267761230469	520.1565551757813	407.4637756347656	-493.4723815917969	202.0051727294922	418.1289978027344	-495.3394470214844	77.61780548095703	351.62060546875	-554.3269653320313	44.50407791137695	303.534423828125	-346.1522521972656	40.77311706542969	350.5022583007813	-306.9659118652344	1023.709289550781	159.5818328857422	-213.6503143310547	630.9284057617188	72.16034698486328	-158.4744262695313	554.8443603515625	121.4927749633789	-214.2472076416016	278.7316284179688	77.41603851318359	-214.7410430908203	103.0430908203125	144.9767303466797	-272.2982788085938	64.18494415283203	202.5326232910156	nan	nan	nan	
487	4.86	-365.5359191894531	1509.34228515625	301.3609313964844	-301.3461303710938	1459.913940429688	458.9166564941406	-328.9520568847656	1468.458251953125	134.5832061767578	-475.0279846191406	1051.606567382813	286.4787292480469	-289.250732421875	1011.059631347656	406.7644348144531	-403.392333984375	606.1821899414063	462.8971557617188	-402.152587890625	520.1665649414063	407.9259033203125	-493.2001953125	202.4846038818359	418.1083984375	-495.2286376953125	77.92389678955078	351.633544921875	-554.1450805664063	45.00805282592773	303.3490905761719	-346.190185546875	40.7908821105957	350.7068176269531	-298.6023864746094	1022.396545410156	159.855224609375	-208.2095031738281	627.8057250976563	73.44922637939453	-151.4585266113281	553.2369995117188	123.1673049926758	-193.5449066162109	275.4180908203125	78.00827789306641	-185.6260070800781	99.50619506835938	145.1648254394531	-241.9141693115234	58.58424377441406	202.6221466064453	nan	nan	nan	
488	4.87	-356.59521484375	1508.052124023438	301.4640197753906	-292.4635925292969	1458.373413085938	459.0038757324219	-320.2675476074219	1467.318115234375	134.62353515625	-465.4915466308594	1050.253173828125	286.7155151367188	-281.2814331054688	1009.699096679688	407.1524658203125	-399.5800476074219	606.0830078125	463.2671203613281	-399.4873962402344	520.0580444335938	408.4317932128906	-492.7862548828125	202.9440765380859	418.0759582519531	-495.0566711425781	78.22931671142578	351.6041259765625	-554.0164794921875	45.60939025878906	303.094482421875	-346.2095336914063	40.76946640014648	350.8922424316406	-289.6441040039063	1021.397094726563	160.2268676757813	-202.2756195068359	624.7363891601563	74.71681213378906	-144.4766845703125	551.302001953125	124.9894027709961	-173.5646514892578	272.5628662109375	78.79550933837891	-157.3070831298828	96.57286071777344	145.4201812744141	-211.8836975097656	53.67014312744141	202.8495178222656	nan	nan	nan	
489	4.88	-347.9856567382813	1506.7666015625	301.4850463867188	-283.5438842773438	1456.807495117188	458.95947265625	-311.871826171875	1466.229736328125	134.5846099853516	-456.7438049316406	1048.958984375	286.7759704589844	-272.5333251953125	1008.567077636719	407.3901672363281	-395.7119140625	605.963134765625	463.6355590820313	-396.4072875976563	519.787841796875	408.8523254394531	-492.1724853515625	203.382080078125	418.0790100097656	-495.0041198730469	78.60639953613281	351.4973754882813	-553.721923828125	46.07859039306641	302.820068359375	-346.1583251953125	40.70578765869141	351.0469665527344	-282.2279663085938	1019.511474609375	160.199462890625	-195.8332824707031	621.603759765625	75.84564208984375	-137.4682159423828	549.1393432617188	126.878547668457	-154.5767517089844	270.1330871582031	79.67298126220703	-130.0798797607422	94.58176422119141	145.7390441894531	-183.1337738037109	49.77999114990234	203.2513885498047	11.26535606384277	73.38039398193359	165.2714233398438	
